<svg width="32" height="32" viewBox="0 0 32 32" fill="none" xmlns="http://www.w3.org/2000/svg">
<path d="M30.44 1.56C29.4394 0.561497 28.0836 0.000502021 26.67 0H5.33C3.9164 0 2.56069 0.561552 1.56112 1.56112C0.561552 2.56069 0 3.9164 0 5.33V26.67C0 28.0836 0.561552 29.4393 1.56112 30.4389C2.56069 31.4384 3.9164 32 5.33 32H26.67C28.0836 32 29.4393 31.4384 30.4389 30.4389C31.4384 29.4393 32 28.0836 32 26.67V5.33C31.9995 3.91639 31.4385 2.56065 30.44 1.56ZM3.07 3.07C3.36627 2.77224 3.71842 2.53592 4.10626 2.37461C4.49409 2.2133 4.90996 2.13017 5.33 2.13H26.67C27.5179 2.13264 28.3303 2.47063 28.9298 3.07017C29.5294 3.66972 29.8674 4.48212 29.87 5.33V8.53H2.13V5.33C2.13255 4.48208 2.47048 3.66962 3.07 3.07ZM28.93 28.93C28.6337 29.2278 28.2816 29.4641 27.8937 29.6254C27.5059 29.7867 27.09 29.8698 26.67 29.87H5.33C4.48212 29.8674 3.66972 29.5294 3.07017 28.9298C2.47063 28.3303 2.13264 27.5179 2.13 26.67V10.67H29.87V26.67C29.8675 27.5179 29.5295 28.3304 28.93 28.93Z" fill="#303096"/>
<path d="M25.5999 6.40001C25.8115 6.40001 26.0184 6.33726 26.1943 6.21968C26.3703 6.10211 26.5074 5.935 26.5884 5.73948C26.6694 5.54396 26.6906 5.32882 26.6493 5.12126C26.608 4.9137 26.5061 4.72305 26.3565 4.57341C26.2068 4.42376 26.0162 4.32186 25.8086 4.28057C25.6011 4.23928 25.3859 4.26047 25.1904 4.34146C24.9949 4.42244 24.8278 4.55959 24.7102 4.73555C24.5926 4.91151 24.5299 5.11838 24.5299 5.33001C24.5299 5.61379 24.6426 5.88595 24.8433 6.08661C25.0439 6.28728 25.3161 6.40001 25.5999 6.40001ZM21.3299 6.40001C21.4784 6.41442 21.6283 6.3976 21.77 6.35064C21.9116 6.30367 22.0419 6.2276 22.1523 6.1273C22.2628 6.02701 22.3511 5.90471 22.4116 5.76826C22.472 5.63181 22.5032 5.48424 22.5032 5.33501C22.5032 5.18578 22.472 5.03821 22.4116 4.90176C22.3511 4.76531 22.2628 4.64301 22.1523 4.54272C22.0419 4.44242 21.9116 4.36635 21.77 4.31938C21.6283 4.27242 21.4784 4.2556 21.3299 4.27001C21.0652 4.29569 20.8196 4.41898 20.6409 4.61586C20.4622 4.81275 20.3632 5.06912 20.3632 5.33501C20.3632 5.60091 20.4622 5.85727 20.6409 6.05416C20.8196 6.25104 21.0652 6.37434 21.3299 6.40001ZM6.39988 6.40001H10.6699C10.9345 6.37434 11.1801 6.25104 11.3589 6.05416C11.5376 5.85727 11.6366 5.60091 11.6366 5.33501C11.6366 5.06912 11.5376 4.81275 11.3589 4.61586C11.1801 4.41898 10.9345 4.29569 10.6699 4.27001H6.39988C6.25135 4.2556 6.10145 4.27242 5.95981 4.31938C5.81816 4.36635 5.68791 4.44242 5.57741 4.54272C5.46692 4.64301 5.37862 4.76531 5.3182 4.90176C5.25778 5.03821 5.22656 5.18578 5.22656 5.33501C5.22656 5.48424 5.25778 5.63181 5.3182 5.76826C5.37862 5.90471 5.46692 6.02701 5.57741 6.1273C5.68791 6.2276 5.81816 6.30367 5.95981 6.35064C6.10145 6.3976 6.25135 6.41442 6.39988 6.40001ZM15.9999 13.87H6.39988C6.25984 13.8687 6.12093 13.8951 5.99117 13.9478C5.8614 14.0005 5.74337 14.0784 5.64388 14.1769C5.54438 14.2755 5.46541 14.3928 5.41152 14.522C5.35762 14.6513 5.32988 14.79 5.32988 14.93V25.6C5.32988 25.8838 5.44261 26.1559 5.64328 26.3566C5.84394 26.5573 6.1161 26.67 6.39988 26.67H15.9999C16.2837 26.67 16.5558 26.5573 16.7565 26.3566C16.9572 26.1559 17.0699 25.8838 17.0699 25.6V14.93C17.0699 14.79 17.0421 14.6513 16.9882 14.522C16.9344 14.3928 16.8554 14.2755 16.7559 14.1769C16.6564 14.0784 16.5384 14.0005 16.4086 13.9478C16.2788 13.8951 16.1399 13.8687 15.9999 13.87ZM14.9299 24.53H7.46988V16H14.9299V24.53ZM25.5999 14.93H20.2699C19.9861 14.93 19.7139 15.0427 19.5133 15.2434C19.3126 15.4441 19.1999 15.7162 19.1999 16C19.1999 16.2838 19.3126 16.556 19.5133 16.7566C19.7139 16.9573 19.9861 17.07 20.2699 17.07H25.5999C25.8837 17.07 26.1558 16.9573 26.3565 16.7566C26.5571 16.556 26.6699 16.2838 26.6699 16C26.6699 15.7162 26.5571 15.4441 26.3565 15.2434C26.1558 15.0427 25.8837 14.93 25.5999 14.93ZM25.5999 19.2H20.2699C20.1214 19.1856 19.9715 19.2024 19.8298 19.2494C19.6882 19.2964 19.5579 19.3724 19.4474 19.4727C19.3369 19.573 19.2486 19.6953 19.1882 19.8318C19.1278 19.9682 19.0966 20.1158 19.0966 20.265C19.0966 20.4142 19.1278 20.5618 19.1882 20.6983C19.2486 20.8347 19.3369 20.957 19.4474 21.0573C19.5579 21.1576 19.6882 21.2337 19.8298 21.2806C19.9715 21.3276 20.1214 21.3444 20.2699 21.33H25.5999C25.7484 21.3444 25.8983 21.3276 26.04 21.2806C26.1816 21.2337 26.3119 21.1576 26.4223 21.0573C26.5328 20.957 26.6211 20.8347 26.6816 20.6983C26.742 20.5618 26.7732 20.4142 26.7732 20.265C26.7732 20.1158 26.742 19.9682 26.6816 19.8318C26.6211 19.6953 26.5328 19.573 26.4223 19.4727C26.3119 19.3724 26.1816 19.2964 26.04 19.2494C25.8983 19.2024 25.7484 19.1856 25.5999 19.2ZM25.5999 23.47H20.2699C20.1214 23.4556 19.9715 23.4724 19.8298 23.5194C19.6882 23.5663 19.5579 23.6424 19.4474 23.7427C19.3369 23.843 19.2486 23.9653 19.1882 24.1018C19.1278 24.2382 19.0966 24.3858 19.0966 24.535C19.0966 24.6842 19.1278 24.8318 19.1882 24.9683C19.2486 25.1047 19.3369 25.227 19.4474 25.3273C19.5579 25.4276 19.6882 25.5037 19.8298 25.5506C19.9715 25.5976 20.1214 25.6144 20.2699 25.6H25.5999C25.7484 25.6144 25.8983 25.5976 26.04 25.5506C26.1816 25.5037 26.3119 25.4276 26.4223 25.3273C26.5328 25.227 26.6211 25.1047 26.6816 24.9683C26.742 24.8318 26.7732 24.6842 26.7732 24.535C26.7732 24.3858 26.742 24.2382 26.6816 24.1018C26.6211 23.9653 26.5328 23.843 26.4223 23.7427C26.3119 23.6424 26.1816 23.5663 26.04 23.5194C25.8983 23.4724 25.7484 23.4556 25.5999 23.47Z" fill="#303096"/>
</svg>
