<svg width="52" height="52" viewBox="0 0 52 52" fill="none" xmlns="http://www.w3.org/2000/svg">
<path d="M26 6.50659C25.1473 6.50659 24.3029 6.67455 23.515 7.00088C22.7272 7.32721 22.0114 7.80552 21.4084 8.40849C20.8054 9.01147 20.3271 9.72731 20.0008 10.5151C19.6745 11.303 19.5065 12.1474 19.5065 13.0001C19.5065 13.8528 19.6745 14.6972 20.0008 15.485C20.3271 16.2729 20.8054 16.9887 21.4084 17.5917C22.0114 18.1947 22.7272 18.673 23.515 18.9993C24.3029 19.3256 25.1473 19.4936 26 19.4936C27.7222 19.4936 29.3738 18.8095 30.5916 17.5917C31.8094 16.3739 32.4935 14.7223 32.4935 13.0001C32.4935 11.2779 31.8094 9.62626 30.5916 8.40849C29.3738 7.19073 27.7222 6.50659 26 6.50659V6.50659ZM40.625 9.75009C39.3321 9.75009 38.0921 10.2637 37.1779 11.1779C36.2636 12.0922 35.75 13.3322 35.75 14.6251C35.75 15.918 36.2636 17.158 37.1779 18.0722C38.0921 18.9865 39.3321 19.5001 40.625 19.5001C41.9179 19.5001 43.1579 18.9865 44.0721 18.0722C44.9864 17.158 45.5 15.918 45.5 14.6251C45.5 13.3322 44.9864 12.0922 44.0721 11.1779C43.1579 10.2637 41.9179 9.75009 40.625 9.75009V9.75009ZM11.375 9.75009C10.0821 9.75009 8.84209 10.2637 7.92785 11.1779C7.01362 12.0922 6.5 13.3322 6.5 14.6251C6.5 15.918 7.01362 17.158 7.92785 18.0722C8.84209 18.9865 10.0821 19.5001 11.375 19.5001C12.6679 19.5001 13.9079 18.9865 14.8221 18.0722C15.7364 17.158 16.25 15.918 16.25 14.6251C16.25 13.3322 15.7364 12.0922 14.8221 11.1779C13.9079 10.2637 12.6679 9.75009 11.375 9.75009ZM16.25 25.9773C16.256 25.1193 16.6011 24.2985 17.2099 23.6939C17.8188 23.0894 18.642 22.7501 19.5 22.7501H32.5C33.362 22.7501 34.1886 23.0925 34.7981 23.702C35.4076 24.3115 35.75 25.1381 35.75 26.0001V35.7501C35.7498 36.7729 35.5897 37.7895 35.2755 38.7628C34.5559 40.9686 33.0734 42.8456 31.0944 44.0568C29.1154 45.2679 26.7694 45.7339 24.4778 45.371C22.1861 45.0081 20.0989 43.8401 18.5909 42.0768C17.0829 40.3135 16.2529 38.0703 16.25 35.7501V25.9773ZM13 26.0001C13 24.8138 13.3153 23.7056 13.871 22.7501H6.5C5.63805 22.7501 4.8114 23.0925 4.2019 23.702C3.59241 24.3115 3.25 25.1381 3.25 26.0001V34.1251C3.24956 35.4553 3.57573 36.7653 4.19989 37.9401C4.82404 39.1148 5.72707 40.1183 6.82969 40.8625C7.9323 41.6066 9.20076 42.0687 10.5237 42.2081C11.8466 42.3475 13.1835 42.1599 14.417 41.6618C13.4816 39.8307 12.9958 37.8031 13 35.7468V26.0001ZM39 26.0001V35.7501C39 37.8788 38.4898 39.8873 37.583 41.6618C38.8165 42.1599 40.1534 42.3475 41.4763 42.2081C42.7992 42.0687 44.0677 41.6066 45.1703 40.8625C46.2729 40.1183 47.176 39.1148 47.8001 37.9401C48.4243 36.7653 48.7504 35.4553 48.75 34.1251V26.0001C48.75 25.1381 48.4076 24.3115 47.7981 23.702C47.1886 23.0925 46.362 22.7501 45.5 22.7501H38.129C38.6815 23.7056 39 24.8138 39 26.0001Z" fill="#F8F8F8"/>
</svg>
