<svg width="52" height="52" viewBox="0 0 52 52" fill="none" xmlns="http://www.w3.org/2000/svg">
<path d="M48.75 46.475L44.2 41.925C45.0125 40.625 45.5 39 45.5 37.375C45.5 32.825 41.925 29.25 37.375 29.25C32.825 29.25 29.25 32.825 29.25 37.375C29.25 41.925 32.825 45.5 37.375 45.5C39 45.5 40.625 45.0125 41.925 44.2L46.475 48.75L48.75 46.475ZM32.5 37.375C32.5 34.6125 34.6125 32.5 37.375 32.5C40.1375 32.5 42.25 34.6125 42.25 37.375C42.25 40.1375 40.1375 42.25 37.375 42.25C34.6125 42.25 32.5 40.1375 32.5 37.375ZM13 26H29.25V29.25H13V26ZM13 16.25H32.5V19.5H13V16.25Z" fill="white"/>
<path d="M22.75 45.0125L14.3 40.4625C9.425 38.025 6.5 32.9875 6.5 27.625V6.5H39V24.375H42.25V6.5C42.25 4.7125 40.7875 3.25 39 3.25H6.5C4.7125 3.25 3.25 4.7125 3.25 6.5V27.625C3.25 34.2875 6.825 40.3 12.675 43.3875L22.75 48.75V45.0125Z" fill="white"/>
</svg>
