<svg width="52" height="52" viewBox="0 0 52 52" fill="none" xmlns="http://www.w3.org/2000/svg">
<path d="M30.3333 28.1667H43.3333C43.908 28.1667 44.4591 27.9385 44.8654 27.5321C45.2717 27.1258 45.5 26.5747 45.5 26.0001V19.5001C45.5 18.9254 45.2717 18.3743 44.8654 17.968C44.4591 17.5617 43.908 17.3334 43.3333 17.3334H36.8333L34.6667 15.1667H30.3333C29.7587 15.1667 29.2076 15.395 28.8013 15.8014C28.3949 16.2077 28.1667 16.7588 28.1667 17.3334V19.5001H17.3333V15.1667H21.6667C22.2413 15.1667 22.7924 14.9385 23.1987 14.5321C23.6051 14.1258 23.8333 13.5747 23.8333 13.0001V6.50008C23.8333 5.92545 23.6051 5.37435 23.1987 4.96802C22.7924 4.56169 22.2413 4.33341 21.6667 4.33341H15.1667L13 2.16675H8.66667C8.09203 2.16675 7.54093 2.39502 7.1346 2.80135C6.72827 3.20768 6.5 3.75878 6.5 4.33341V13.0001C6.5 13.5747 6.72827 14.1258 7.1346 14.5321C7.54093 14.9385 8.09203 15.1667 8.66667 15.1667H13V43.3334H28.1667V45.5001C28.1667 46.0747 28.3949 46.6258 28.8013 47.0322C29.2076 47.4385 29.7587 47.6667 30.3333 47.6667H43.3333C43.908 47.6667 44.4591 47.4385 44.8654 47.0322C45.2717 46.6258 45.5 46.0747 45.5 45.5001V39.0001C45.5 38.4254 45.2717 37.8743 44.8654 37.468C44.4591 37.0617 43.908 36.8334 43.3333 36.8334H36.8333L34.6667 34.6667H30.3333C29.7587 34.6667 29.2076 34.895 28.8013 35.3013C28.3949 35.7077 28.1667 36.2588 28.1667 36.8334V39.0001H17.3333V23.8334H28.1667V26.0001C28.1667 26.5747 28.3949 27.1258 28.8013 27.5321C29.2076 27.9385 29.7587 28.1667 30.3333 28.1667Z" fill="#F8F8F8"/>
</svg>
