<svg width="52" height="52" viewBox="0 0 52 52" fill="none" xmlns="http://www.w3.org/2000/svg">
<path d="M36.1111 5.77783H15.8889C15.1227 5.77783 14.3879 6.0822 13.8461 6.62397C13.3044 7.16574 13 7.90054 13 8.66672V43.3334C13 44.0996 13.3044 44.8344 13.8461 45.3761C14.3879 45.9179 15.1227 46.2223 15.8889 46.2223H36.1111C36.8773 46.2223 37.6121 45.9179 38.1539 45.3761C38.6956 44.8344 39 44.0996 39 43.3334V8.66672C39 7.90054 38.6956 7.16574 38.1539 6.62397C37.6121 6.0822 36.8773 5.77783 36.1111 5.77783ZM27.4444 43.3334H24.5556V40.4445H27.4444V43.3334ZM15.8889 37.5556V8.66672H36.1111V37.5556H15.8889Z" fill="#F8F8F8"/>
</svg>
