<svg width="39" height="32" viewBox="0 0 39 32" fill="none" xmlns="http://www.w3.org/2000/svg">
<g clip-path="url(#clip0_614_344)">
<path d="M12.6749 21.45C12.5292 21.45 12.3836 21.4713 12.2446 21.5164C11.4549 21.773 10.6243 21.9375 9.74986 21.9375C8.8754 21.9375 8.04482 21.773 7.25446 21.5164C7.11553 21.4713 6.9705 21.45 6.82485 21.45C3.04307 21.45 -0.0202551 24.5261 -0.000145697 28.3128C0.00838555 29.913 1.32403 31.2 2.92485 31.2H16.5749C18.1757 31.2 19.4913 29.913 19.4999 28.3128C19.52 24.5261 16.4566 21.45 12.6749 21.45ZM9.74986 19.5C12.9808 19.5 15.5999 16.8809 15.5999 13.65C15.5999 10.4191 12.9808 7.8 9.74986 7.8C6.51895 7.8 3.89985 10.4191 3.89985 13.65C3.89985 16.8809 6.51895 19.5 9.74986 19.5ZM36.0749 0H12.6749C11.0618 0 9.74986 1.35586 9.74986 3.02189V5.85C11.177 5.85 12.4981 6.26316 13.6499 6.93469V3.9H35.0999V21.45H31.1999V17.55H23.3999V21.45H18.754C19.9179 22.467 20.7722 23.8101 21.1726 25.35H36.0749C37.6879 25.35 38.9999 23.9941 38.9999 22.3281V3.02189C38.9999 1.35586 37.6879 0 36.0749 0Z" fill="white"/>
</g>
<defs>
<clipPath id="clip0_614_344">
<rect width="39" height="31.2" fill="white"/>
</clipPath>
</defs>
</svg>
