<svg width="52" height="52" viewBox="0 0 52 52" fill="none" xmlns="http://www.w3.org/2000/svg">
<path d="M6.5 3.25H3.25V45.5C3.25 46.362 3.59241 47.1886 4.2019 47.7981C4.8114 48.4076 5.63805 48.75 6.5 48.75H48.75V45.5H6.5V3.25Z" fill="white"/>
<path d="M48.75 14.625H37.375V17.875H43.2088L30.875 30.2087L23.9038 23.2212C23.7527 23.0689 23.573 22.9481 23.3749 22.8656C23.1769 22.7831 22.9645 22.7406 22.75 22.7406C22.5355 22.7406 22.3231 22.7831 22.1251 22.8656C21.927 22.9481 21.7473 23.0689 21.5962 23.2212L9.75 35.0837L12.0412 37.375L22.75 26.6663L29.7213 33.6537C29.8723 33.8061 30.052 33.927 30.2501 34.0094C30.4481 34.0919 30.6605 34.1344 30.875 34.1344C31.0895 34.1344 31.3019 34.0919 31.4999 34.0094C31.698 33.927 31.8777 33.8061 32.0287 33.6537L45.5 20.1662V26H48.75V14.625Z" fill="white"/>
</svg>
