<svg width="52" height="52" viewBox="0 0 52 52" fill="none" xmlns="http://www.w3.org/2000/svg">
<g clip-path="url(#clip0_419_211)">
<path d="M51.3604 40.6406L46.8 33.8V10.4C46.8 7.53475 44.46 5.19995 41.6 5.19995H10.4C7.5374 5.19995 5.2 7.53475 5.2 10.4V33.8L0.6396 40.6406C0 41.6 0 42.1538 0 42.9V44.2C0 45.5 1.3 46.8 2.5974 46.8H49.4026C50.7 46.8 52 45.5 52 44.2V42.9C52 42.1538 52 41.6 51.3604 40.6406ZM18.2 41.6L19.76 39H32.24L33.8 41.6H18.2ZM41.6 31.2H10.4V10.4H41.6V31.2Z" fill="#F8F8F8"/>
</g>
<defs>
<clipPath id="clip0_419_211">
<rect width="52" height="52" fill="white"/>
</clipPath>
</defs>
</svg>
