<svg width="40" height="40" viewBox="0 0 40 40" fill="none" xmlns="http://www.w3.org/2000/svg">
<path d="M19.9991 21.8272C22.0555 21.8272 23.7224 20.1603 23.7224 18.1039C23.7224 16.0476 22.0555 14.3806 19.9991 14.3806C17.9428 14.3806 16.2758 16.0476 16.2758 18.1039C16.2758 20.1603 17.9428 21.8272 19.9991 21.8272Z" fill="#FE7F2D"/>
<path d="M12.84 30.0053C13.3092 26.4728 16.3415 23.7385 20 23.7385C23.659 23.7385 26.6909 26.4728 27.16 30.0058C22.3864 34.5562 17.6132 34.5562 12.84 30.0053Z" fill="#FE7F2D"/>
<path d="M36.6031 14.547C35.428 14.547 34.3747 13.8714 33.8346 12.8276C33.727 12.6197 33.6141 12.4127 33.4959 12.2079C33.3778 12.0031 33.2552 11.8018 33.1288 11.6049C32.4951 10.6159 32.4364 9.36513 33.0237 8.34765C33.8771 6.86979 33.3708 4.98013 31.8929 4.12676L27.7998 1.76358C26.3219 0.910213 24.4323 1.41654 23.5789 2.8944L23.578 2.89572C22.9991 3.89832 21.9089 4.48911 20.7527 4.43266C20.2503 4.40815 19.7457 4.40815 19.2407 4.43266C18.0867 4.48867 16.9988 3.89613 16.4211 2.89528L16.4207 2.8944C15.5673 1.41654 13.6776 0.910213 12.1998 1.76314L8.10668 4.12632C6.62882 4.97969 6.12248 6.86935 6.97585 8.34721L6.97629 8.34809C7.55395 9.34894 7.52332 10.587 6.89795 11.5585C6.62444 11.9834 6.37237 12.4206 6.14218 12.8679C5.61309 13.8976 4.55622 14.5462 3.39827 14.5462H3.39695C1.69022 14.547 0.306885 15.9304 0.306885 17.6367V22.363C0.306885 24.0698 1.69022 25.4531 3.39695 25.4531C4.57198 25.4531 5.62534 26.1288 6.16537 27.1725C6.27303 27.3804 6.38593 27.587 6.50409 27.7922C6.62225 27.997 6.74479 28.1983 6.87126 28.3953C7.50494 29.3843 7.56358 30.635 6.97629 31.6525C6.12292 33.1304 6.62925 35.02 8.10711 35.8734L12.2002 38.2366C13.6781 39.0899 15.5677 38.5836 16.4211 37.1057L16.422 37.1044C17.001 36.1018 18.0911 35.511 19.2473 35.5675C19.7497 35.592 20.2543 35.592 20.7593 35.5679C21.9133 35.5119 23.0012 36.1045 23.5789 37.1053L23.5793 37.1062C24.4327 38.584 26.3224 39.0904 27.8002 38.237L31.8933 35.8738C33.3712 35.0205 33.8775 33.1308 33.0242 31.6529L33.0237 31.6521C32.4461 30.6516 32.4767 29.4132 33.1021 28.4416C33.3756 28.0167 33.6277 27.5795 33.8578 27.1323C34.3869 26.1025 35.4438 25.454 36.6017 25.454H36.6031C38.3098 25.454 39.6931 24.0706 39.6931 22.3639V17.6367C39.6931 15.9304 38.3098 14.547 36.6031 14.547ZM20 32.3076C13.2133 32.3076 7.69181 26.7861 7.69181 19.9994C7.69181 13.2127 13.2129 7.69165 20 7.69165C26.7867 7.69165 32.3082 13.2132 32.3082 19.9999C32.3082 26.7865 26.7867 32.3076 20 32.3076Z" fill="#FE7F2D"/>
</svg>
