<svg width="33" height="32" viewBox="0 0 33 32" fill="none" xmlns="http://www.w3.org/2000/svg">
<path d="M1.33333 16.805L7.08667 19.3233L23.6667 10.2783L13.6667 21.945L28 28.4717C28.2451 28.579 28.5125 28.6258 28.7795 28.608C29.0465 28.5902 29.3053 28.5083 29.534 28.3694C29.7628 28.2304 29.9546 28.0384 30.0935 27.8097C30.2323 27.5809 30.314 27.322 30.3317 27.055L31.9983 2.055C32.0169 1.76564 31.9598 1.47643 31.8327 1.21584C31.7055 0.955242 31.5127 0.732237 31.2733 0.568769C31.0338 0.405301 30.7559 0.307004 30.4668 0.283549C30.1778 0.260095 29.8877 0.312292 29.625 0.435003L1.29167 13.7683C1.00265 13.9055 0.759095 14.1227 0.589973 14.3942C0.420851 14.6658 0.333277 14.9802 0.337666 15.3C0.342055 15.6199 0.438222 15.9318 0.614731 16.1986C0.791239 16.4654 1.04066 16.6759 1.33333 16.805ZM10.3333 31.945L18.2933 28.085L10.3333 24.3717V31.945Z" fill="#31C5F0"/>
</svg>
