<svg width="618" height="484" viewBox="0 0 618 484" fill="none" xmlns="http://www.w3.org/2000/svg">
<circle cx="6" cy="430" r="6" fill="#56CCF2"/>
<circle cx="54" cy="430" r="6" fill="#56CCF2"/>
<circle cx="102" cy="430" r="6" fill="#56CCF2"/>
<circle cx="150" cy="430" r="6" fill="#56CCF2"/>
<circle cx="6" cy="454" r="6" fill="#56CCF2"/>
<circle cx="54" cy="454" r="6" fill="#56CCF2"/>
<circle cx="102" cy="454" r="6" fill="#56CCF2"/>
<circle cx="150" cy="454" r="6" fill="#56CCF2"/>
<circle cx="6" cy="478" r="6" fill="#56CCF2"/>
<circle cx="54" cy="478" r="6" fill="#56CCF2"/>
<circle cx="102" cy="478" r="6" fill="#56CCF2"/>
<circle cx="150" cy="478" r="6" fill="#56CCF2"/>
<circle cx="516" cy="6" r="6" fill="#56CCF2"/>
<circle cx="564" cy="6" r="6" fill="#56CCF2"/>
<circle cx="612" cy="6" r="6" fill="#56CCF2"/>
<circle cx="516" cy="30" r="6" fill="#56CCF2"/>
<circle cx="564" cy="30" r="6" fill="#56CCF2"/>
<circle cx="612" cy="30" r="6" fill="#56CCF2"/>
<circle cx="516" cy="54" r="6" fill="#56CCF2"/>
<circle cx="564" cy="54" r="6" fill="#56CCF2"/>
<circle cx="612" cy="54" r="6" fill="#56CCF2"/>
<rect x="202" y="83" width="284" height="384" rx="21" stroke="#FFD249" stroke-width="6"/>
</svg>
