<svg width="42" height="42" viewBox="0 0 42 42" fill="none" xmlns="http://www.w3.org/2000/svg">
<rect width="42" height="42" rx="8" fill="#E1E1FD"/>
<path d="M26.7273 12.4091H25.9L25.1364 10.4364C24.8182 9.73638 24.1182 9.22729 23.3545 9.22729H18.7091C17.9454 9.22729 17.2454 9.67272 16.9273 10.4364L16.1636 12.4091H15.2727C14.8909 12.4091 14.6364 12.6637 14.6364 13.0455V13.6818H18.4545V13.0455C18.4545 12.6636 18.2 12.4091 17.8182 12.4091H17.5L18.0728 10.8819C18.2 10.6273 18.3909 10.5 18.6454 10.5H23.2909C23.5454 10.5 23.8 10.6273 23.8636 10.8819L24.4364 12.4091H24.1818C23.8 12.4091 23.5454 12.6637 23.5454 13.0455V13.6818H27.3636V13.0455C27.3637 12.6637 27.1091 12.4091 26.7273 12.4091Z" fill="#9BA7AF"/>
<path d="M33.0909 32.7727H8.90909C8.20909 32.7727 7.63635 32.2 7.63635 31.5V17.5H34.3636V31.5C34.3637 32.2 33.7909 32.7727 33.0909 32.7727Z" fill="#B06328"/>
<path d="M33.0909 20.4273L23.5455 22.4636C23.4818 22.1455 23.2273 21.9546 22.9092 21.9546H20.3637C19.9819 21.9546 19.7274 22.2091 19.7274 22.5909H19.091L8.01818 20.2364C7.89092 20.2364 7.76361 20.1727 7.63635 20.1091V20.7455C7.76361 20.8091 7.89092 20.8727 8.01818 20.8727L19.0909 23.2273H19.7273V25.1364C19.7273 25.5182 19.9818 25.7727 20.3636 25.7727H22.2727C22.9727 25.7727 23.5454 25.2 23.5454 24.5V24.3727C23.5454 23.6091 24.0545 22.9727 24.8182 22.7818L31.1818 21.4455C32.2 21.2546 33.0909 22.0182 33.0909 22.9727V30.8C33.0909 31.1819 32.8364 31.4364 32.4546 31.4364H8.90909C8.08184 31.4364 8.01818 32.7091 8.84544 32.7091H33.0273C33.7273 32.7091 34.3 32.1364 34.3 31.4364V20.1091L33.0909 20.4273Z" fill="#A35425"/>
<path d="M7.63635 31.5V29.5909H9.54544C10.2454 29.5909 10.8182 30.1637 10.8182 30.8637V32.7728H8.90909C8.20909 32.7728 7.63635 32.2 7.63635 31.5Z" fill="#F6B545"/>
<path d="M8.90905 31.5C8.08179 31.5 8.01813 32.7091 8.84539 32.7727H10.8181V31.5H8.90905Z" fill="#F19920"/>
<path d="M33.091 32.7728H31.1819V30.8637C31.1819 30.1637 31.7546 29.5909 32.4546 29.5909H34.3637V31.5C34.3637 32.2 33.791 32.7728 33.091 32.7728Z" fill="#F6B545"/>
<path d="M33.091 29.5909V30.8637C33.091 31.2455 32.8364 31.5 32.4546 31.5H31.1819V32.7728H33.091C33.791 32.7728 34.3637 32.2 34.3637 31.5V29.5909H33.091Z" fill="#F19920"/>
<path d="M9.86362 30.8636H8.59088C8.39996 30.8636 8.27271 30.7364 8.27271 30.5455C8.27271 30.3546 8.39996 30.2273 8.59088 30.2273H9.86362C10.0545 30.2273 10.1818 30.3546 10.1818 30.5455C10.1818 30.7363 10.0545 30.8636 9.86362 30.8636Z" fill="#FFCB5B"/>
<path d="M33.7273 13.6819H8.27274C7.57274 13.6819 7 14.2546 7 14.9546V19.0274C7 19.6001 7.44543 20.1728 8.01817 20.3001L19.0909 22.591H22.9091L33.9818 20.2364C34.5546 20.1091 35 19.6001 35 18.9637V14.891C35 14.2546 34.4273 13.6819 33.7273 13.6819Z" fill="#C97629"/>
<path d="M22.2727 25.1364H19.7273C19.3455 25.1364 19.0909 24.8818 19.0909 24.5V21.9546C19.0909 21.5728 19.3455 21.3182 19.7273 21.3182H22.2727C22.6545 21.3182 22.9091 21.5728 22.9091 21.9546V24.5C22.9091 24.8818 22.6545 25.1364 22.2727 25.1364Z" fill="#F6B545"/>
<path d="M22.2728 21.3182V24.5001H19.0909C19.0909 24.8819 19.3455 25.1364 19.7273 25.1364H22.2727C22.6545 25.1364 22.9091 24.8818 22.9091 24.5001V21.9546C22.9091 21.5728 22.6546 21.3182 22.2728 21.3182Z" fill="#F19920"/>
<path d="M21.3182 22.5909H20.0455C19.8546 22.5909 19.7273 22.4637 19.7273 22.2728C19.7273 22.0818 19.8546 21.9546 20.0455 21.9546H21.3182C21.5091 21.9546 21.6364 22.0818 21.6364 22.2728C21.6364 22.4637 21.5091 22.5909 21.3182 22.5909Z" fill="#FFCB5B"/>
<path d="M8.59088 14.3182H11.7727C11.9636 14.3182 12.0909 14.4455 12.0909 14.6364C12.0909 14.8273 11.9636 14.9546 11.7727 14.9546H8.59088C8.39996 14.9546 8.27271 14.8273 8.27271 14.6364C8.27271 14.4455 8.39996 14.3182 8.59088 14.3182Z" fill="#DA8C36"/>
<path d="M8.90905 22.9091V26.0909C8.90905 26.2819 8.78179 26.4091 8.59088 26.4091C8.39996 26.4091 8.27271 26.2819 8.27271 26.0909V22.9091C8.27271 22.7182 8.39996 22.5909 8.59088 22.5909C8.78179 22.5909 8.90905 22.7182 8.90905 22.9091Z" fill="#C97629"/>
<path d="M13.0455 14.3182H19.4091C19.6 14.3182 19.7273 14.4455 19.7273 14.6364C19.7273 14.8273 19.6 14.9546 19.4091 14.9546H13.0455C12.8546 14.9546 12.7273 14.8273 12.7273 14.6364C12.7273 14.4455 12.8546 14.3182 13.0455 14.3182Z" fill="#DA8C36"/>
<path d="M24.5 10.1818L25.3909 12.4091H25.9L25.1364 10.4363C24.8818 9.86358 24.3727 9.41815 23.8 9.29089C24.0546 9.48181 24.3728 9.79998 24.5 10.1818ZM21.3818 9.86364H18.7091C18.2 9.86364 17.6909 10.1818 17.5 10.6909L16.8 12.4091H17.4364L18.0091 10.8818C18.1364 10.6272 18.3273 10.5 18.5818 10.5H22.9091C22.5273 10.1182 21.9546 9.86364 21.3818 9.86364ZM14.6364 13.0454H18.4545V13.6818H14.6364V13.0454ZM23.5454 13.0454H27.3636V13.6818H23.5454V13.0454Z" fill="#72818B"/>
</svg>
