<svg width="36" height="36" viewBox="0 0 36 36" fill="none" xmlns="http://www.w3.org/2000/svg">
<circle cx="18" cy="18" r="18" fill="#FFD249"/>
<path d="M18 13.9688C20.2005 13.9688 21.9844 12.1849 21.9844 9.98438C21.9844 7.78387 20.2005 6 18 6C15.7995 6 14.0156 7.78387 14.0156 9.98438C14.0156 12.1849 15.7995 13.9688 18 13.9688Z" fill="#474790"/>
<path d="M20.9278 14.5088C20.0842 15.0566 19.0786 15.3753 18 15.3753C16.9214 15.3753 15.9158 15.0566 15.0722 14.5088C14.1343 14.8673 13.2703 15.395 12.5232 16.0658L18 18.1196L23.4768 16.0658C22.7297 15.395 21.8657 14.8672 20.9278 14.5088ZM26.4375 20.5315H25.9688C25.5804 20.5315 25.2656 20.8463 25.2656 21.2346V23.1096C25.2656 23.498 25.5804 23.8128 25.9688 23.8128H26.4375C27.3436 23.8128 28.0781 23.0782 28.0781 22.1721C28.0781 21.2661 27.3436 20.5315 26.4375 20.5315ZM10.0995 16.982C10.0061 17.0467 9.92981 17.1331 9.87711 17.2337C9.8244 17.3343 9.79687 17.4463 9.79688 17.5599V19.1253H10.0312C11.1944 19.1253 12.1406 20.0715 12.1406 21.2346V23.1096C12.1406 24.2728 11.1944 25.219 10.0312 25.219H9.79688V26.7005C9.79687 26.8436 9.84055 26.9834 9.92208 27.101C10.0036 27.2186 10.1191 27.3086 10.2531 27.3589L17.2969 30.0003V19.3578L10.7469 16.9015C10.6405 16.8616 10.526 16.848 10.4133 16.8621C10.3005 16.8761 10.1929 16.9172 10.0995 16.982Z" fill="#474790"/>
<path d="M23.8594 23.1093V21.2343C23.8594 20.0712 24.8056 19.125 25.9688 19.125H26.2031V17.5596C26.2031 17.446 26.1756 17.334 26.1229 17.2334C26.0702 17.1327 25.9939 17.0464 25.9005 16.9817C25.8071 16.9169 25.6994 16.8758 25.5867 16.8618C25.4739 16.8478 25.3595 16.8613 25.2531 16.9012L18.7031 19.3575V30L25.7469 27.3586C25.8809 27.3083 25.9964 27.2183 26.0779 27.1007C26.1594 26.9831 26.2031 26.8433 26.2031 26.7002V25.2187H25.9688C24.8056 25.2187 23.8594 24.2725 23.8594 23.1093ZM10.7344 23.1093V21.2343C10.7344 20.846 10.4196 20.5312 10.0312 20.5312H9.5625C8.65641 20.5312 7.92188 21.2657 7.92188 22.1718C7.92188 23.0779 8.65641 23.8125 9.5625 23.8125H10.0312C10.4196 23.8125 10.7344 23.4977 10.7344 23.1093Z" fill="#474790"/>
</svg>
