<svg width="36" height="36" viewBox="0 0 36 36" fill="none" xmlns="http://www.w3.org/2000/svg">
<circle cx="18" cy="18" r="18" fill="#FFD249"/>
<path fill-rule="evenodd" clip-rule="evenodd" d="M22.3889 20.0264H28.8461C28.901 20.0266 28.9554 20.0147 29.0052 19.9915C29.0551 19.9683 29.0992 19.9345 29.1344 19.8923C29.1697 19.8501 29.1952 19.8006 29.2091 19.7475C29.2231 19.6943 29.2251 19.6387 29.2151 19.5847C28.6934 16.6996 26.1693 14.5112 23.1341 14.5112C21.3114 14.5112 19.6735 15.3005 18.5425 16.5557C19.1599 17.0826 19.6659 17.7275 20.0308 18.4526H22.4443L22.3889 20.0264ZM7.21675 26.4604H21.9623C22.2033 26.4604 22.4005 26.6576 22.4005 26.8986V27.7689C22.4005 28.0099 22.2033 28.2071 21.9623 28.2071H7.21675C6.97577 28.2071 6.77856 28.0099 6.77856 27.7689V26.8986C6.77856 26.6576 6.97577 26.4604 7.21675 26.4604ZM7.5116 19.2026H21.6675L21.4382 25.7104H7.74086L7.5116 19.2026ZM14.5895 21.7972C13.786 21.7972 13.1346 22.3018 13.1346 22.9243C13.1346 23.5467 13.786 24.0513 14.5895 24.0513C15.3931 24.0513 16.0445 23.5467 16.0445 22.9243C16.0444 22.3018 15.3931 21.7972 14.5895 21.7972ZM14.5896 9.98161C16.0797 9.98161 17.2878 11.1896 17.2878 12.6798C17.2878 14.17 16.0797 15.378 14.5896 15.378C13.0994 15.378 11.8914 14.17 11.8914 12.6798C11.8914 11.1896 13.0994 9.98161 14.5896 9.98161ZM19.1749 18.4526H10.0042C10.9354 16.8921 12.6403 15.8468 14.5895 15.8468C16.5388 15.8468 18.2436 16.8921 19.1749 18.4526ZM23.1341 7.79297C24.8598 7.79297 26.2588 9.19195 26.2588 10.9177C26.2588 12.6434 24.8598 14.0424 23.1341 14.0424C21.4083 14.0424 20.0093 12.6435 20.0093 10.9177C20.0093 9.192 21.4083 7.79297 23.1341 7.79297Z" fill="#474790"/>
</svg>
