<svg width="36" height="36" viewBox="0 0 36 36" fill="none" xmlns="http://www.w3.org/2000/svg">
<circle cx="18" cy="18" r="18" fill="#FFD249"/>
<path d="M21.75 7.5H20.121C19.812 6.627 18.978 6 18 6C17.022 6 16.188 6.627 15.8775 7.5H14.25C13.836 7.5 13.5 7.836 13.5 8.25V11.25C13.5 11.664 13.836 12 14.25 12H21.75C22.164 12 22.5 11.664 22.5 11.25V8.25C22.5 7.836 22.164 7.5 21.75 7.5Z" fill="#474790"/>
<path d="M25.5 9H24V11.25C24 12.4905 22.9905 13.5 21.75 13.5H14.25C13.0095 13.5 12 12.4905 12 11.25V9H10.5C9.6735 9 9 9.6735 9 10.5V28.5C9 29.3415 9.6585 30 10.5 30H25.5C26.3415 30 27 29.3415 27 28.5V10.5C27 9.6585 26.3415 9 25.5 9ZM17.781 22.281L14.781 25.281C14.6399 25.4213 14.449 25.5 14.25 25.5C14.051 25.5 13.8601 25.4213 13.719 25.281L12.219 23.781C11.9265 23.4885 11.9265 23.013 12.219 22.7205C12.5115 22.428 12.987 22.428 13.2795 22.7205L14.25 23.6895L16.719 21.2205C17.0115 20.928 17.487 20.928 17.7795 21.2205C18.072 21.513 18.0735 21.987 17.781 22.281ZM17.781 16.281L14.781 19.281C14.6399 19.4213 14.449 19.5 14.25 19.5C14.051 19.5 13.8601 19.4213 13.719 19.281L12.219 17.781C11.9265 17.4885 11.9265 17.013 12.219 16.7205C12.5115 16.428 12.987 16.428 13.2795 16.7205L14.25 17.6895L16.719 15.2205C17.0115 14.928 17.487 14.928 17.7795 15.2205C18.072 15.513 18.0735 15.987 17.781 16.281ZM23.25 24H20.25C19.836 24 19.5 23.664 19.5 23.25C19.5 22.836 19.836 22.5 20.25 22.5H23.25C23.664 22.5 24 22.836 24 23.25C24 23.664 23.664 24 23.25 24ZM23.25 18H20.25C19.836 18 19.5 17.664 19.5 17.25C19.5 16.836 19.836 16.5 20.25 16.5H23.25C23.664 16.5 24 16.836 24 17.25C24 17.664 23.664 18 23.25 18Z" fill="#474790"/>
</svg>
