<svg width="36" height="36" viewBox="0 0 36 36" fill="none" xmlns="http://www.w3.org/2000/svg">
<circle cx="18" cy="18" r="18" fill="#FFD249"/>
<path d="M27.0275 13.4596V10.6723C27.0275 9.75021 26.2772 9 25.3551 9H9.67233C8.75021 9 8 9.75021 8 10.6723V13.4596H27.0275ZM20.8584 11.2298H24.2031C24.5109 11.2298 24.7605 11.4794 24.7605 11.7872C24.7605 12.0951 24.5109 12.3447 24.2031 12.3447H20.8584C20.5505 12.3447 20.3009 12.0951 20.3009 11.7872C20.3009 11.4794 20.5505 11.2298 20.8584 11.2298ZM15.2839 11.2298C15.5918 11.2298 15.8414 11.4794 15.8414 11.7872C15.8414 12.0951 15.5918 12.3447 15.2839 12.3447C14.9761 12.3447 14.7265 12.0951 14.7265 11.7872C14.7265 11.4794 14.9761 11.2298 15.2839 11.2298ZM13.0542 11.2298C13.362 11.2298 13.6116 11.4794 13.6116 11.7872C13.6116 12.0951 13.362 12.3447 13.0542 12.3447C12.7463 12.3447 12.4967 12.0951 12.4967 11.7872C12.4967 11.4794 12.7463 11.2298 13.0542 11.2298ZM10.8244 11.2298C11.1322 11.2298 11.3818 11.4794 11.3818 11.7872C11.3818 12.0951 11.1322 12.3447 10.8244 12.3447C10.5165 12.3447 10.2669 12.0951 10.2669 11.7872C10.2669 11.4794 10.5165 11.2298 10.8244 11.2298ZM8 14.5744V26.2808C8 27.2029 8.75021 27.9531 9.67233 27.9531H25.3551C26.2772 27.9531 27.0275 27.2029 27.0275 26.2808V14.5744H8ZM14.5173 22.5008C14.7577 22.6931 14.7967 23.0439 14.6043 23.2843C14.4121 23.5247 14.0612 23.5637 13.8208 23.3714L11.0336 21.1416C10.7549 20.9187 10.7547 20.4941 11.0336 20.271L13.8208 18.0412C14.0611 17.8489 14.412 17.8879 14.6043 18.1283C14.7967 18.3687 14.7577 18.7195 14.5173 18.9118L12.2742 20.7063L14.5173 22.5008ZM19.6984 17.0238L16.3538 24.8281C16.2325 25.111 15.9049 25.2422 15.6218 25.1208C15.3388 24.9996 15.2077 24.6718 15.329 24.3889L18.6737 16.5846C18.795 16.3017 19.1227 16.1706 19.4057 16.2919C19.6886 16.4131 19.8197 16.7408 19.6984 17.0238ZM23.9938 21.1416L21.2066 23.3714C20.9666 23.5635 20.6157 23.5251 20.4231 23.2844C20.2308 23.044 20.2697 22.6931 20.5102 22.5009L22.7533 20.7063L20.5102 18.9119C20.2697 18.7195 20.2308 18.3688 20.4231 18.1283C20.6154 17.8879 20.9662 17.849 21.2066 18.0413L23.9938 20.2711C24.2725 20.494 24.2727 20.9186 23.9938 21.1416Z" fill="#474790"/>
</svg>
