<svg width="36" height="36" viewBox="0 0 36 36" fill="none" xmlns="http://www.w3.org/2000/svg">
<circle cx="18" cy="18" r="18" fill="#FFD249"/>
<path d="M26.7373 7H10.2627C9.01501 7 8 8.01505 8 9.26271V21.7834C8 23.0311 9.01501 24.0461 10.2627 24.0461H19.9492V21.4539C19.9492 19.3461 21.6641 17.6312 23.7718 17.6312C25.8796 17.6312 27.5945 19.3461 27.5945 21.4539V23.8769C28.4182 23.5384 29 22.7278 29 21.7834V9.26271C29 8.01505 27.9849 7 26.7373 7ZM13.8871 9.67967H23.1129C23.4526 9.67967 23.7281 9.95513 23.7281 10.2949C23.7281 10.6347 23.4526 10.9101 23.1129 10.9101H13.8871C13.5474 10.9101 13.2719 10.6347 13.2719 10.2949C13.2719 9.95513 13.5474 9.67967 13.8871 9.67967ZM17.9285 20.7512H11.2511C10.9114 20.7512 10.6359 20.4757 10.6359 20.1359C10.6359 19.7962 10.9114 19.5207 11.2511 19.5207H17.9285C18.2683 19.5207 18.5438 19.7962 18.5438 20.1359C18.5438 20.4757 18.2683 20.7512 17.9285 20.7512ZM25.7488 16.182H11.2511C10.9114 16.182 10.6359 15.9066 10.6359 15.5668C10.6359 15.227 10.9114 14.9516 11.2511 14.9516H25.7488C26.0886 14.9516 26.364 15.227 26.364 15.5668C26.364 15.9066 26.0886 16.182 25.7488 16.182ZM25.7488 13.5461H11.2511C10.9114 13.5461 10.6359 13.2706 10.6359 12.9309C10.6359 12.5911 10.9114 12.3156 11.2511 12.3156H25.7488C26.0886 12.3156 26.364 12.5911 26.364 12.9309C26.364 13.2706 26.0886 13.5461 25.7488 13.5461Z" fill="#474790"/>
<path d="M23.7718 18.8623C22.3425 18.8623 21.1797 20.0252 21.1797 21.4545C21.1797 22.8838 22.3426 24.0466 23.7718 24.0466C25.2012 24.0466 26.364 22.8838 26.364 21.4545C26.364 20.0252 25.2012 18.8623 23.7718 18.8623ZM21.1797 24.2613V27.3853C21.1797 27.4967 21.2099 27.606 21.2671 27.7015C21.3243 27.7971 21.4064 27.8753 21.5046 27.9278C21.6028 27.9804 21.7134 28.0053 21.8246 27.9999C21.9358 27.9945 22.0435 27.959 22.1362 27.8972L23.7718 26.8068L25.4075 27.8972C25.5086 27.9646 25.6273 28.0006 25.7488 28.0006C25.8296 28.0006 25.9096 27.9847 25.9842 27.9537C26.0589 27.9228 26.1267 27.8775 26.1838 27.8204C26.241 27.7632 26.2863 27.6954 26.3172 27.6208C26.3481 27.5461 26.364 27.4661 26.364 27.3853V24.2613C25.6822 24.8914 24.7713 25.2771 23.7718 25.2771C22.7724 25.2771 21.8615 24.8914 21.1797 24.2613Z" fill="#474790"/>
</svg>
