<svg width="36" height="36" viewBox="0 0 36 36" fill="none" xmlns="http://www.w3.org/2000/svg">
<circle cx="18" cy="18" r="18" fill="#FFD249"/>
<path d="M11.8 12.1C11 11.3 7.59998 11.1 6.49997 11C6.39998 11 6.29995 11 6.19997 11.1C6.09998 11.2 6 11.4 6 11.5V20.5C6 20.8 6.20002 21 6.50002 21H9.50002C9.70003 21 9.9 20.9 10 20.7C10 20.4 11.8 15.1 12 12.5C12 12.4 12 12.2 11.8 12.1ZM22.5 14.5C21.5 14.2 20.6 13.8 19.8 13.5C18 12.7 17.2 13.1 15.6 14.7C14.9 15.4 14.4 16.4 14.5 16.8C14.5 16.9 14.5 16.9 14.7 17C15.2 17.2001 15.9 17.3 16.6 16.2C16.7 16.1 16.8 16 17 16C17.3 16 17.4 15.9 17.7 15.8C17.9 15.7 18.0999 15.6 18.3999 15.5H18.6C18.6999 15.5 18.9 15.6 18.9999 15.6C19.5 16.1 20.4 16.8 21.3 17.6C22.7 18.7001 24.1 19.9001 24.8 20.8001H24.9C24.2 18.8 23 15.4 22.5 14.5ZM29.5 12C25.6 12 23.4 13 23.3 13L23 13.3C23 13.4 23 13.6 23.1 13.7C23.7 14.7 25.7 20.2 26 21.6C26.1 21.8 26.3 22 26.5 22H29.5C29.8 22 30 21.8 30 21.5V12.5C30 12.2 29.8 12 29.5 12Z" fill="#474790"/>
<path d="M24.0999 21.8C23.6999 20.9 21.9999 19.6 20.4999 18.4C19.6999 17.7 18.8999 17.1 18.2999 16.6C18.1999 16.7 17.9999 16.7 17.9999 16.8C17.6999 16.9 17.5999 17 17.1999 17C16.3999 18 15.3999 18.4 14.2999 18C13.7999 17.9 13.4999 17.5 13.3999 17.1C13.1999 16.1 14.0999 14.7 14.8 14H12.7999C12.4 16 11.6999 18.6 11.2 20C11.5999 20.4 12 20.9 12.3 21.1C14.2 22.7 16.4 24.3 16.8 24.6C17.1 24.8 17.7 25 18 25H18.3L16.6999 23.4C16.4999 23.2 16.4999 22.9 16.6999 22.7C16.9 22.5 17.2 22.5 17.3999 22.7L19.3999 24.7C19.6 24.9 19.7999 24.8 19.9999 24.8C20.2999 24.7 20.3999 24.5 20.5 24.2L18.1999 21.9C17.9999 21.7 17.9999 21.4 18.1999 21.2C18.4 21 18.7 21 18.8999 21.2L21.3999 23.7C21.4999 23.8 21.8999 23.8 22.1999 23.7C22.2999 23.6 22.4999 23.5 22.5999 23.3L19.7999 20.5C19.5999 20.3 19.5999 20 19.7999 19.8C19.9999 19.6 20.2999 19.6 20.4999 19.8L23.3999 22.7C23.5999 22.8 23.7999 22.7 23.9999 22.6C24.0999 22.5 24.2999 22.2 24.0999 21.8Z" fill="#474790"/>
</svg>
