<svg width="48" height="11" viewBox="0 0 48 11" fill="none" xmlns="http://www.w3.org/2000/svg">
<mask id="mask0_5538_4279" style="mask-type:luminance" maskUnits="userSpaceOnUse" x="-35" y="-265" width="284" height="391">
<path d="M-34.8604 125.527H248.604V-264.713H-34.8604V125.527Z" fill="white"/>
</mask>
<g mask="url(#mask0_5538_4279)">
<path d="M12.9883 2.75964H15.5749C16.6226 2.75964 17.4035 3.20648 17.4035 4.14791C17.4035 4.8381 17.0411 5.22237 16.4126 5.42632V5.44208C17.1621 5.59133 17.5487 5.98348 17.5487 6.65003C17.5487 7.95997 16.364 8.23438 15.3568 8.23438H12.9883V2.75964ZM14.4868 4.92478H14.9059C15.3973 4.92478 15.9054 4.80704 15.9054 4.34398C15.9054 3.84244 15.4216 3.79516 14.9216 3.79516H14.4868V4.92478ZM14.4868 7.19932H14.9302C15.4783 7.19932 16.0502 7.12052 16.0502 6.56382C16.0502 5.96772 15.4621 5.91302 14.9459 5.91302H14.4868V7.19932Z" fill="#00529C"/>
</g>
<path d="M19.5141 2.75964H21.3513L23.5189 8.23438H21.8751L21.456 7.06582H19.3451L18.9018 8.23438H17.3789L19.5141 2.75964ZM20.4327 3.88926H20.4165L19.6913 6.03076H21.1018L20.4327 3.88926Z" fill="#00529C"/>
<path d="M23.7285 2.75964H25.638L27.5399 6.4776H27.5556L27.5318 2.75964H28.9018V8.23438H27.0399L25.0742 4.49277H25.0585L25.1061 8.23438H23.7285V2.75964Z" fill="#00529C"/>
<path d="M29.4102 2.75964H30.9087V4.99524H30.9249L32.6168 2.75964H34.4216L32.343 5.30858L34.583 8.23438H32.673L30.9249 5.74801H30.9087V8.23438H29.4102V2.75964Z" fill="#00529C"/>
<mask id="mask1_5538_4279" style="mask-type:luminance" maskUnits="userSpaceOnUse" x="-36" y="-265" width="285" height="391">
<path d="M-35.001 125.527H248.463V-264.713H-35.001V125.527Z" fill="white"/>
</mask>
<g mask="url(#mask1_5538_4279)">
<path d="M36.4414 2.75964H39.0281C40.0752 2.75964 40.8571 3.20648 40.8571 4.14791C40.8571 4.8381 40.4947 5.22237 39.8662 5.42632V5.44208C40.6157 5.59133 41.0019 5.98348 41.0019 6.65003C41.0019 7.95997 39.8176 8.23438 38.8104 8.23438H36.4414V2.75964ZM37.94 4.92478H38.359C38.8509 4.92478 39.3581 4.80704 39.3581 4.34398C39.3581 3.84244 38.8752 3.79516 38.3752 3.79516H37.94V4.92478ZM37.94 7.19932H38.3833C38.9309 7.19932 39.5033 7.12052 39.5033 6.56382C39.5033 5.96772 38.9152 5.91302 38.3995 5.91302H37.94V7.19932Z" fill="#00529C"/>
<path d="M41.334 2.75964H44.0092C45.0083 2.75964 45.8221 3.19906 45.8221 4.14049C45.8221 4.86962 45.4678 5.35586 44.7425 5.52041V5.53617C45.2254 5.66179 45.2578 6.07758 45.5402 6.74413L46.0878 8.23438H44.5249L44.2025 7.2466C43.8964 6.30517 43.7025 6.06923 43.1468 6.06923H42.8326V8.23438H41.334V2.75964ZM42.8326 5.03417H43.2273C43.7111 5.03417 44.3235 5.01841 44.3235 4.39868C44.3235 3.88926 43.7997 3.79516 43.2273 3.79516H42.8326V5.03417Z" fill="#00529C"/>
</g>
<path d="M46.502 2.76172H48.0005V8.23646H46.502V2.76172Z" fill="#00529C"/>
<path d="M9.56759 9.53674e-07H1.72428C0.771902 9.53674e-07 0 0.769922 0 1.71969V1.73777V9.28077C0 10.2213 0.757616 10.9861 1.69761 11H9.5633C10.5157 11 11.2881 10.2305 11.2881 9.28077L11.2914 1.71969C11.2914 0.769922 10.52 9.53674e-07 9.56759 9.53674e-07ZM2.65618 10.1188L2.22856 10.1235C1.71047 10.1235 1.29047 9.70907 1.29047 9.1978L1.28809 9.12503V2.14243L1.29095 1.76604C1.31047 1.27146 1.69666 0.873753 2.2019 0.873753H3.0719C3.86046 0.873753 4.49951 1.54123 4.49951 2.32784C4.49951 2.71721 4.34284 3.07041 4.08904 3.32721L1.86952 5.5197L3.94999 7.58194C4.21808 7.85125 4.37999 8.20446 4.37999 8.5915C4.37999 9.43513 3.60856 10.1188 2.65618 10.1188ZM9.05188 10.1119L5.17332 10.1105C5.17332 10.1105 5.62141 9.16721 5.62141 8.58316C5.62141 7.87072 5.37713 7.23476 4.99427 6.81387L3.66761 5.49745L5.02141 4.1356C5.42475 3.7671 5.69236 3.1126 5.69236 2.36678C5.69236 1.77624 5.52474 1.25338 5.25475 0.873753H6.19427C6.98284 0.873753 7.62236 1.54123 7.62236 2.32784C7.62236 2.71721 7.46569 3.07041 7.21188 3.32721L5.03475 5.49699L9.55664 9.98534C9.41331 10.0729 9.23283 10.1119 9.05188 10.1119ZM9.99902 8.71063L6.75855 5.4956L8.30188 3.96873C8.61569 3.58632 8.81521 3.01062 8.81521 2.36678C8.81521 1.77254 8.64521 1.23623 8.37283 0.856602L9.06331 0.876997C9.5814 0.876997 10.0014 1.29139 10.0014 1.80266L9.99902 8.71063Z" fill="#00529C"/>
</svg>
