<svg width="120" height="120" viewBox="0 0 120 120" fill="none" xmlns="http://www.w3.org/2000/svg">
<g filter="url(#filter0_d_3662_10753)">
<circle cx="60" cy="54" r="36" fill="#27AE60"/>
</g>
<path d="M70.5752 43.3651C69.2 41.976 67.562 40.8746 65.7567 40.1252C63.9513 39.3757 62.0149 38.9933 60.0602 39.0001C51.8702 39.0001 45.1952 45.6751 45.1952 53.8651C45.1952 56.4901 45.8852 59.0401 47.1752 61.2901L45.0752 69.0001L52.9502 66.9301C55.1252 68.1151 57.5702 68.7451 60.0602 68.7451C68.2502 68.7451 74.9252 62.0701 74.9252 53.8801C74.9252 49.9051 73.3802 46.1701 70.5752 43.3651ZM60.0602 66.2251C57.8402 66.2251 55.6652 65.6251 53.7602 64.5001L53.3102 64.2301L48.6302 65.4601L49.8752 60.9001L49.5752 60.4351C48.3418 58.4655 47.6869 56.189 47.6852 53.8651C47.6852 47.0551 53.2352 41.5051 60.0452 41.5051C63.3452 41.5051 66.4502 42.7951 68.7752 45.1351C69.9264 46.281 70.8387 47.6441 71.4593 49.1452C72.0798 50.6464 72.3962 52.2558 72.3902 53.8801C72.4202 60.6901 66.8702 66.2251 60.0602 66.2251ZM66.8402 56.9851C66.4652 56.8051 64.6352 55.9051 64.3052 55.7701C63.9602 55.6501 63.7202 55.5901 63.4652 55.9501C63.2102 56.3251 62.5052 57.1651 62.2952 57.4051C62.0852 57.6601 61.8602 57.6901 61.4852 57.4951C61.1102 57.3151 59.9102 56.9101 58.5002 55.6501C57.3902 54.6601 56.6552 53.4451 56.4302 53.0701C56.2202 52.6951 56.4002 52.5001 56.5952 52.3051C56.7602 52.1401 56.9702 51.8701 57.1502 51.6601C57.3302 51.4501 57.4052 51.2851 57.5252 51.0451C57.6452 50.7901 57.5852 50.5801 57.4952 50.4001C57.4052 50.2201 56.6552 48.3901 56.3552 47.6401C56.0552 46.9201 55.7402 47.0101 55.5152 46.9951H54.7952C54.5402 46.9951 54.1502 47.0851 53.8052 47.4601C53.4752 47.8351 52.5152 48.7351 52.5152 50.5651C52.5152 52.3951 53.8502 54.1651 54.0302 54.4051C54.2102 54.6601 56.6552 58.4101 60.3752 60.0151C61.2602 60.4051 61.9502 60.6301 62.4902 60.7951C63.3752 61.0801 64.1852 61.0351 64.8302 60.9451C65.5502 60.8401 67.0352 60.0451 67.3352 59.1751C67.6502 58.3051 67.6502 57.5701 67.5452 57.4051C67.4402 57.2401 67.2152 57.1651 66.8402 56.9851Z" fill="white"/>
<defs>
<filter id="filter0_d_3662_10753" x="0" y="0" width="120" height="120" filterUnits="userSpaceOnUse" color-interpolation-filters="sRGB">
<feFlood flood-opacity="0" result="BackgroundImageFix"/>
<feColorMatrix in="SourceAlpha" type="matrix" values="0 0 0 0 0 0 0 0 0 0 0 0 0 0 0 0 0 0 127 0" result="hardAlpha"/>
<feOffset dy="6"/>
<feGaussianBlur stdDeviation="12"/>
<feComposite in2="hardAlpha" operator="out"/>
<feColorMatrix type="matrix" values="0 0 0 0 0 0 0 0 0 0 0 0 0 0 0 0 0 0 0.25 0"/>
<feBlend mode="normal" in2="BackgroundImageFix" result="effect1_dropShadow_3662_10753"/>
<feBlend mode="normal" in="SourceGraphic" in2="effect1_dropShadow_3662_10753" result="shape"/>
</filter>
</defs>
</svg>
